<svg id="bowl_cups" data-name="bowl&amp;cups" xmlns="http://www.w3.org/2000/svg" width="110" height="110" viewBox="0 0 110 110">
  <path id="Icon_awesome-glass-whiskey" data-name="Icon awesome-glass-whiskey" d="M103.119,6.25H6.875c-4.189,0-7.39,4.224-6.81,8.964L12.1,102.767c.967,7.736,6.767,13.483,13.62,13.483H84.364c6.832,0,12.653-5.747,13.62-13.483l11.945-87.553C110.509,10.474,107.308,6.25,103.119,6.25ZM95.084,21.968,88.639,69.121H21.4L14.91,21.968Z" transform="translate(0.003 -6.25)" fill="#ecc8ad"/>
  <path id="Icon_map-pet-store" data-name="Icon map-pet-store" d="M25,16.042a4.44,4.44,0,0,1,4.367,2.915c.627,2.1.542,4.4,3.3,5.6,2.446.724,3.372,1.634,3.372,4.073,0,1.947-1.915,4.016-4.385,4.274A11.255,11.255,0,0,1,25,31.927a11.245,11.245,0,0,1-6.65.974c-2.471-.258-4.386-2.335-4.386-4.274,0-2.387.988-3.4,3.43-4.089,3.005-1.335,2.6-3.675,3.272-5.685A4.473,4.473,0,0,1,25,16.042Zm13.768-1.45c-.745-.563-3.784,1.634-4.741,2.721a3.179,3.179,0,0,0-.943,2.256,3.255,3.255,0,0,0,6.255,1.207C40.276,18.668,40.327,15.769,38.767,14.591Zm-27.537,0c-1.558,1.178-1.507,4.077-.569,6.183a3.254,3.254,0,0,0,6.253-1.206,3.178,3.178,0,0,0-.942-2.256C15.016,16.226,11.977,14.028,11.231,14.591ZM29,3.043c7.566,1.117,7.035,12.2.977,11.3a3.809,3.809,0,0,1-3.242-3.3C26.536,9.371,26.085,2.614,29,3.043Zm-8,0c2.917-.43,2.465,6.327,2.265,8.008a3.807,3.807,0,0,1-3.241,3.3C13.964,15.241,13.433,4.16,21,3.043Z" transform="translate(30.005 74.235)" fill="#fff"/>
</svg>
