<svg xmlns="http://www.w3.org/2000/svg" width="110" height="110" viewBox="0 0 110 110">
  <g id="Grupo_4" data-name="Grupo 4" transform="translate(-364 -2112)">
    <path id="Icon_metro-ambulance" data-name="Icon metro-ambulance" d="M44.137,108.8a9.835,9.835,0,0,0-2.222-6.481,6.7,6.7,0,0,0-10.727,0,10.56,10.56,0,0,0,0,12.962,6.7,6.7,0,0,0,10.727,0,9.832,9.832,0,0,0,2.223-6.481ZM21.379,72.132H44.137V53.8H34.773a2.264,2.264,0,0,0-1.3.645L21.912,68.408a5.892,5.892,0,0,0-.533,1.575v2.148ZM97.24,108.8a9.834,9.834,0,0,0-2.223-6.481,6.7,6.7,0,0,0-10.727,0,10.56,10.56,0,0,0,0,12.962,6.7,6.7,0,0,0,10.727,0A9.834,9.834,0,0,0,97.24,108.8Zm7.586-48.125V46.923a2.5,2.5,0,0,0-.533-1.647,1.691,1.691,0,0,0-1.363-.645H89.654V28.59a2.5,2.5,0,0,0-.533-1.647,1.691,1.691,0,0,0-1.363-.645H76.378a1.691,1.691,0,0,0-1.363.645,2.5,2.5,0,0,0-.533,1.647V44.632H61.206a1.691,1.691,0,0,0-1.363.645,2.5,2.5,0,0,0-.533,1.647v13.75a2.5,2.5,0,0,0,.533,1.647,1.691,1.691,0,0,0,1.363.645H74.482V79.007a2.5,2.5,0,0,0,.533,1.647,1.691,1.691,0,0,0,1.363.645H87.758a1.691,1.691,0,0,0,1.363-.645,2.5,2.5,0,0,0,.533-1.647V62.965H102.93a1.691,1.691,0,0,0,1.363-.645,2.5,2.5,0,0,0,.533-1.647ZM120,21.715v82.5a4.9,4.9,0,0,1-1.126,3.223,3.37,3.37,0,0,1-2.667,1.361H104.827a19.67,19.67,0,0,1-4.445,12.962,13.4,13.4,0,0,1-21.455,0A19.67,19.67,0,0,1,74.482,108.8H51.723a19.67,19.67,0,0,1-4.445,12.962,13.4,13.4,0,0,1-21.455,0A19.672,19.672,0,0,1,21.378,108.8H13.792a3.37,3.37,0,0,1-2.667-1.361,5.174,5.174,0,0,1,0-6.445,3.37,3.37,0,0,1,2.667-1.361V69.84a13.165,13.165,0,0,1,.771-4.154,11.394,11.394,0,0,1,1.9-3.652l11.735-14.18a8.987,8.987,0,0,1,3.023-2.292,7.92,7.92,0,0,1,3.438-.931h9.483V21.715a4.9,4.9,0,0,1,1.126-3.223,3.37,3.37,0,0,1,2.667-1.361h68.276a3.37,3.37,0,0,1,2.667,1.361A4.9,4.9,0,0,1,120,21.715Z" transform="translate(354.001 2094.868)" fill="#ecc8ad"/>
  </g>
</svg>
