<svg xmlns="http://www.w3.org/2000/svg" width="110" height="110" viewBox="0 0 110 110">
  <g id="Grupo_3" data-name="Grupo 3" transform="translate(-239 -2316)">
    <path id="Icon_awesome-pills" data-name="Icon awesome-pills" d="M21.39,6.25C9.568,6.25,0,18.551,0,33.75v55c0,15.2,9.568,27.5,21.39,27.5s21.39-12.3,21.39-27.5v-55C42.779,18.551,33.211,6.25,21.39,6.25Zm9.167,55H12.223V33.75c0-6.507,4.106-11.786,9.167-11.786s9.167,5.279,9.167,11.786Zm26.68-7.292a1.359,1.359,0,0,0-2.349.2c-8.651,15.346-7.716,36.855,3.037,50.679s27.482,15.027,39.418,3.9a2.389,2.389,0,0,0,.153-3.02Zm43.887-4.665C90.371,35.469,73.641,34.266,61.7,45.388a2.389,2.389,0,0,0-.153,3.02l40.258,51.759a1.359,1.359,0,0,0,2.349-.2C112.811,84.6,111.894,63.116,101.123,49.292Z" transform="translate(239 2309.75)" fill="#ecc8ad"/>
  </g>
</svg>
