<svg id="house-cat" xmlns="http://www.w3.org/2000/svg" width="100" height="88.889" viewBox="0 0 100 88.889">
  <path id="Icon_awesome-house-damage" data-name="Icon awesome-house-damage" d="M50,19.958,12.061,53.422a8.032,8.032,0,0,1-.95.582V86.111a2.777,2.777,0,0,0,2.778,2.778H86.111a2.777,2.777,0,0,0,2.778-2.778V54.01a8.1,8.1,0,0,1-.913-.556ZM99.078,41.021l-10.189-9V8.333a2.777,2.777,0,0,0-2.778-2.778H75a2.777,2.777,0,0,0-2.778,2.778v8.974L54.644,1.79a6.918,6.918,0,0,0-9.279-.007L.922,41.021a2.779,2.779,0,0,0-.21,3.924L4.427,49.08a2.779,2.779,0,0,0,3.924.21L48.163,14.172a2.78,2.78,0,0,1,3.675,0L91.651,49.288a2.78,2.78,0,0,0,3.924-.21l3.715-4.135A2.777,2.777,0,0,0,99.078,41.021Z" transform="translate(0)" fill="#ecc8ad"/>
  <path id="Icon_awesome-cat" data-name="Icon awesome-cat" d="M17.027,15.816A11.173,11.173,0,0,0,7.5,20.955V15.816a5.689,5.689,0,0,0-5.625-5.74,1.914,1.914,0,0,0,0,3.827A1.9,1.9,0,0,1,3.75,15.816V31.122A3.792,3.792,0,0,0,7.5,34.949H17.813a.947.947,0,0,0,.938-.957v-.957a1.9,1.9,0,0,0-1.875-1.913H15l7.5-5.74v8.61a.947.947,0,0,0,.938.957h1.875a.947.947,0,0,0,.938-.957V21.667a7.287,7.287,0,0,1-1.875.271A7.552,7.552,0,0,1,17.027,15.816Zm9.223-5.74H22.5L18.75,6.25v8.036a5.626,5.626,0,1,0,11.25,0V6.25ZM22.031,14.86a.957.957,0,1,1,.938-.957A.947.947,0,0,1,22.031,14.86Zm4.688,0a.957.957,0,1,1,.938-.957A.947.947,0,0,1,26.719,14.86Z" transform="translate(35 47.506)" fill="#fff"/>
</svg>
