<svg xmlns="http://www.w3.org/2000/svg" width="110" height="110" viewBox="0 0 110 110">
  <path id="Icon_material-enhanced-encryption" data-name="Icon material-enhanced-encryption" d="M112.917,40.833h-6.875V30.357c0-14.457-15.4-26.19-34.375-26.19S37.292,15.9,37.292,30.357V40.833H30.417c-7.563,0-13.75,4.714-13.75,10.476V103.69c0,5.762,6.187,10.476,13.75,10.476h82.5c7.563,0,13.75-4.714,13.75-10.476V51.31c0-5.762-6.188-10.476-13.75-10.476ZM50.354,30.357c0-8.957,9.556-16.238,21.313-16.238S92.979,21.4,92.979,30.357V40.833H50.354ZM99.167,82.738H78.542V98.452H64.792V82.738H44.167V72.262H64.792V56.548h13.75V72.262H99.167Z" transform="translate(-16.667 -4.167)" fill="#ecc8ad"/>
</svg>
