<svg xmlns="http://www.w3.org/2000/svg" width="77" height="100" viewBox="0 0 77 100">
  <path id="Icon_material-enhanced-encryption" data-name="Icon material-enhanced-encryption" d="M84.042,37.5H79.229V27.976a24.064,24.064,0,0,0-48.125,0V37.5H26.292a9.6,9.6,0,0,0-9.625,9.524V94.643a9.6,9.6,0,0,0,9.625,9.524h57.75a9.6,9.6,0,0,0,9.625-9.524V47.024A9.6,9.6,0,0,0,84.042,37.5ZM40.248,27.976a14.92,14.92,0,0,1,29.838,0V37.5H40.248ZM74.417,75.6H59.979V89.881H50.354V75.6H35.917V66.071H50.354V51.786h9.625V66.071H74.417Z" transform="translate(-16.667 -4.167)" fill="#ecc8ad"/>
</svg>
