<svg xmlns="http://www.w3.org/2000/svg" width="110.75" height="110.75" viewBox="0 0 110.75 110.75">
  <g id="toy" transform="translate(0 0.5)">
    <g id="toy-2" data-name="toy">
      <path id="Trazado_17" data-name="Trazado 17" d="M50.059,14.492l1.895-.605A1.745,1.745,0,0,1,54.141,15l.02.078a1.745,1.745,0,0,1-1.113,2.188l-2.246.7a.779.779,0,0,0-.508.957c.41,1.348.879,2.676,1.406,4,.371.9.762,1.8,1.191,2.676a.788.788,0,0,0,1.152.313l1.66-1.133a1.727,1.727,0,0,1,2.4.469l.039.059a1.727,1.727,0,0,1-.469,2.4L55.645,29.1a.781.781,0,0,0-.234,1.055,46.55,46.55,0,0,0,4.629,6.113.785.785,0,0,0,1.133.039l1.465-1.465a1.71,1.71,0,0,1,2.441,0l.059.059a1.71,1.71,0,0,1,0,2.441l-1.465,1.465a.785.785,0,0,0,.039,1.133,45.268,45.268,0,0,0,6.348,4.766.781.781,0,0,0,1.055-.234l1.348-1.992a1.73,1.73,0,0,1,2.4-.469l.059.039a1.73,1.73,0,0,1,.469,2.4l-1.074,1.582a.792.792,0,0,0,.313,1.152c.8.371,1.6.742,2.422,1.074,1.387.566,2.793,1.055,4.238,1.484a.791.791,0,0,0,.977-.508l.684-2.109a1.729,1.729,0,0,1,2.188-1.113l.078.02a1.729,1.729,0,0,1,1.113,2.188l-.547,1.719a.8.8,0,0,0,.605,1.016c1.387.254,2.793.449,4.2.566h0c.02-.508.039-1.035.039-1.543A40.619,40.619,0,0,0,50,9.355c-.527,0-1.035.02-1.562.039.137,1.5.332,2.988.605,4.473A.788.788,0,0,0,50.059,14.492Z" transform="translate(19.625 -9.355)" fill="#ecc8ad" stroke="#ecc8ad" stroke-width="1"/>
      <path id="Trazado_18" data-name="Trazado 18" d="M50.391,87.344a.793.793,0,0,0-1.016-.625l-2.266.723a1.745,1.745,0,0,1-2.187-1.113l-.02-.078a1.745,1.745,0,0,1,1.113-2.187l2.7-.859a.787.787,0,0,0,.508-.957C48.77,80.7,48.242,79.2,47.637,77.7c-.312-.781-.645-1.543-1.016-2.3a.784.784,0,0,0-1.152-.312L43.34,76.523a1.727,1.727,0,0,1-2.4-.469L40.9,76a1.727,1.727,0,0,1,.469-2.4l2.539-1.719a.781.781,0,0,0,.234-1.055A45.36,45.36,0,0,0,39.3,64.355a.785.785,0,0,0-1.133-.039L36.23,66.25a1.71,1.71,0,0,1-2.441,0l-.059-.059a1.71,1.71,0,0,1,0-2.441l1.934-1.934a.785.785,0,0,0-.039-1.133A43.684,43.684,0,0,0,29.395,56a.781.781,0,0,0-1.055.234l-1.758,2.6a1.73,1.73,0,0,1-2.4.469l-.059-.039a1.73,1.73,0,0,1-.469-2.4l1.484-2.207a.792.792,0,0,0-.312-1.152c-.84-.41-1.68-.781-2.559-1.133-1.426-.566-2.852-1.074-4.316-1.5a.787.787,0,0,0-.957.508l-.9,2.813a1.729,1.729,0,0,1-2.187,1.113l-.078-.02a1.729,1.729,0,0,1-1.113-2.187l.781-2.422a.789.789,0,0,0-.605-1.016c-1.133-.2-2.285-.352-3.437-.469a.117.117,0,0,1-.078-.02v.82A40.619,40.619,0,0,0,50,90.605h.82c0-.02-.02-.059-.02-.078C50.7,89.473,50.566,88.4,50.391,87.344Z" transform="translate(-9.375 19.645)" fill="#ecc8ad"/>
      <path id="Trazado_19" data-name="Trazado 19" d="M111.009,71.1l-1.567,4.886a2.351,2.351,0,0,1-2.974,1.514l-.106-.027a2.351,2.351,0,0,1-1.513-2.974l1.407-4.408a1.076,1.076,0,0,0-.717-1.354A65.759,65.759,0,0,1,95,64.592a1.074,1.074,0,0,0-1.354.345l-2.788,4.089a2.352,2.352,0,0,1-3.266.637l-.08-.053a2.353,2.353,0,0,1-.637-3.266l2.443-3.611A1.049,1.049,0,0,0,89,61.246a65.63,65.63,0,0,1-9.346-7.09,1.067,1.067,0,0,0-1.46.027l-3.4,3.4a2.324,2.324,0,0,1-3.319,0l-.08-.08a2.324,2.324,0,0,1,0-3.319l3.4-3.4a1.042,1.042,0,0,0,.027-1.46,71.363,71.363,0,0,1-6.9-9.028,1.054,1.054,0,0,0-1.487-.319L62.9,42.367a2.348,2.348,0,0,1-3.266-.637l-.053-.08a2.348,2.348,0,0,1,.637-3.266l4.009-2.708a1.045,1.045,0,0,0,.345-1.354,68.625,68.625,0,0,1-4.2-10.542,1.086,1.086,0,0,0-1.354-.717L54.8,24.417A2.372,2.372,0,0,1,51.826,22.9L51.8,22.8a2.372,2.372,0,0,1,1.513-2.974l4.673-1.487a1.069,1.069,0,0,0,.717-1.221,70,70,0,0,1-1.035-7.408A55.238,55.238,0,0,0,9.609,58.591h.266c1.991.186,3.983.478,5.948.85a1.069,1.069,0,0,0,1.221-.717l1.248-3.93a2.351,2.351,0,0,1,2.974-1.514l.106.027a2.351,2.351,0,0,1,1.513,2.974L21.77,59.733a1.065,1.065,0,0,0,.717,1.354,65.66,65.66,0,0,1,10.806,4.248,1.074,1.074,0,0,0,1.354-.345l2.2-3.266a2.352,2.352,0,0,1,3.266-.637l.08.053a2.353,2.353,0,0,1,.637,3.266l-1.885,2.788a1.049,1.049,0,0,0,.319,1.487,67.593,67.593,0,0,1,9.187,6.983,1.067,1.067,0,0,0,1.46-.027l2.761-2.762a2.324,2.324,0,0,1,3.319,0l.08.08a2.324,2.324,0,0,1,0,3.319l-2.708,2.762a1.042,1.042,0,0,0-.027,1.46A67.569,67.569,0,0,1,60.508,90a1.054,1.054,0,0,0,1.513.319l2.868-1.938a2.348,2.348,0,0,1,3.266.637l.053.08a2.348,2.348,0,0,1-.637,3.266L64.2,94.65A1.045,1.045,0,0,0,63.854,96a67.456,67.456,0,0,1,4.169,10.781,1.055,1.055,0,0,0,1.354.717l3.611-1.168a2.372,2.372,0,0,1,2.974,1.514l.027.106a2.372,2.372,0,0,1-1.513,2.974l-4.142,1.328a1.069,1.069,0,0,0-.717,1.221c.345,1.859.611,3.744.8,5.629v.266A55.238,55.238,0,0,0,119.293,71.31a64.005,64.005,0,0,1-7.089-.956A1.1,1.1,0,0,0,111.009,71.1Z" transform="translate(-9.375 -9.355)" fill="#ecc8ad"/>
    </g>
  </g>
</svg>
