<svg xmlns="http://www.w3.org/2000/svg" width="100" height="90" viewBox="0 0 100 90">
  <g id="Grupo_3" data-name="Grupo 3" transform="translate(-239 -2316)">
    <path id="Icon_awesome-pills" data-name="Icon awesome-pills" d="M19.445,6.25C8.7,6.25,0,16.315,0,28.75v45c0,12.435,8.7,22.5,19.445,22.5S38.89,86.185,38.89,73.75v-45C38.89,16.315,30.192,6.25,19.445,6.25Zm8.334,45H11.111V28.75c0-5.324,3.733-9.643,8.334-9.643s8.334,4.319,8.334,9.643Zm24.254-5.967a1.305,1.305,0,0,0-2.135.161C42.033,58,42.883,75.6,52.658,86.908S77.641,99.2,88.492,90.1a1.807,1.807,0,0,0,.139-2.471Zm39.9-3.817C82.155,30.156,66.946,29.172,56.1,38.272a1.807,1.807,0,0,0-.139,2.471l36.6,42.348a1.305,1.305,0,0,0,2.135-.161C102.555,70.355,101.722,52.777,91.93,41.467Z" transform="translate(239 2309.75)" fill="#ecc8ad"/>
  </g>
</svg>
